<svg t="1629139827152" class="icon" viewBox="0 0 1024 1024" version="1.1" xmlns="http://www.w3.org/2000/svg" p-id="2459" width="200" height="200"><path d="M288 992H224a160 160 0 0 1-160-160V192a160 160 0 0 1 160-160h64a160 160 0 0 1 160 160v640a160 160 0 0 1-160 160zM224 96a96 96 0 0 0-96 96v640a96 96 0 0 0 96 96h64a96 96 0 0 0 96-96V192a96 96 0 0 0-96-96zM800 992h-64a160 160 0 0 1-160-160V192a160 160 0 0 1 160-160h64a160 160 0 0 1 160 160v640a160 160 0 0 1-160 160zM736 96a96 96 0 0 0-96 96v640a96 96 0 0 0 96 96h64a96 96 0 0 0 96-96V192a96 96 0 0 0-96-96z" fill="#ffffff" p-id="2460"></path></svg>